<svg width="64" height="64" viewBox="0 0 64 64" fill="none" xmlns="http://www.w3.org/2000/svg">
<rect x="0.5" y="0.5" width="63" height="63" rx="12.5" fill="white"/>
<rect x="0.5" y="0.5" width="63" height="63" rx="12.5" stroke="#DCE0E5"/>
<path d="M51.3365 41.5433C52.1114 38.6491 52.209 35.6152 51.6216 32.6772C51.0343 29.7392 49.7778 26.976 47.9497 24.6022C46.1216 22.2284 43.7711 20.3077 41.0805 18.9893C38.39 17.6709 35.4319 16.9902 32.4358 17.0001C29.4396 17.01 26.486 17.7101 23.8043 19.0462C21.1225 20.3823 18.7847 22.3184 16.9723 24.7042C15.1599 27.0901 13.9216 29.8615 13.3536 32.8033C12.7856 35.7451 12.9032 38.7783 13.6971 41.6673L32.5 36.5L51.3365 41.5433Z" fill="#FDB421"/>
<path d="M51.3365 41.5433C52.3038 37.9306 52.2118 34.1158 51.0713 30.5539C49.9309 26.9921 47.7902 23.8332 44.9045 21.4541L32.5 36.5L51.3365 41.5433Z" fill="#FC5B1C"/>
<path d="M44.9614 21.5012C41.5948 18.7042 37.3851 17.1211 33.0097 17.0067C28.6343 16.8922 24.3477 18.2532 20.8395 20.8704L32.5 36.5L44.9614 21.5012Z" fill="#0070F2"/>
<circle cx="32.5" cy="36.5" r="10.5" fill="white"/>
<circle cx="32.5" cy="40.5" r="3.5" fill="#0070F2"/>
<path d="M32.0622 40.5L19 37" stroke="#0070F2" stroke-width="3"/>
</svg>
