<svg width="64" height="64" viewBox="0 0 64 64" fill="none" xmlns="http://www.w3.org/2000/svg">
<rect x="0.5" y="0.5" width="63" height="63" rx="12.5" fill="white"/>
<rect x="0.5" y="0.5" width="63" height="63" rx="12.5" stroke="#DCE0E5"/>
<path d="M23.5368 28.2967C23.5368 30.5128 24.25 32.3658 25.5625 33.8649H13.0625C12.4375 33.8649 12 33.3435 12 32.6917C12 29.3023 14.5368 26.7323 17.5993 26.7323H21.4118C22.2243 26.7323 22.9743 26.9279 23.6618 27.3189C23.5993 27.6449 23.5368 27.9708 23.5368 28.2967Z" fill="#FDB421"/>
<path d="M15.5294 20.7675C15.5294 23.4492 17.5882 25.535 20.2353 25.535C22.8235 25.535 24.9412 23.4492 24.9412 20.7675C24.9412 18.1454 22.8235 16 20.2353 16C17.5882 16 15.5294 18.1454 15.5294 20.7675Z" fill="#FDB421"/>
<path d="M40.4632 28.3025C40.4632 30.5186 39.75 32.3716 38.4375 33.8708H50.9375C51.5625 33.8708 52 33.3493 52 32.6975C52 29.3081 49.4632 26.7381 46.4007 26.7381H42.5882C41.7757 26.7381 41.0257 26.9337 40.3382 27.3248C40.4007 27.6507 40.4632 27.9766 40.4632 28.3025Z" fill="#FDB421"/>
<path d="M48.4706 20.7733C48.4706 23.455 46.4118 25.5408 43.7647 25.5408C41.1765 25.5408 39.0588 23.455 39.0588 20.7733C39.0588 18.1512 41.1765 16.0058 43.7647 16.0058C46.4118 16.0058 48.4706 18.1512 48.4706 20.7733Z" fill="#FDB421"/>
<path d="M32 33.8708C28.7607 33.8708 26.0585 31.2291 26.1153 27.9056C26.1153 24.6394 28.7607 21.9491 32 21.9491C35.2393 21.9491 37.8847 24.6452 37.8847 27.9114C37.9415 31.2349 35.2393 33.8708 32 33.8708Z" fill="#0070F2"/>
<path d="M21.75 46.9942C20.75 46.9942 20.2353 46.1841 20.2353 45.2064C20.2353 40.383 23.9375 36.2673 28.875 36.2673L35.125 36.2731C40.0625 36.2731 43.7647 40.3888 43.7647 45.2122C43.7647 46.1899 43.25 47 42.25 47L21.75 46.9942Z" fill="#0070F2"/>
</svg>
