<svg width="64" height="64" viewBox="0 0 64 64" fill="none" xmlns="http://www.w3.org/2000/svg">
<rect x="0.5" y="0.5" width="63" height="63" rx="12.5" fill="white"/>
<rect x="0.5" y="0.5" width="63" height="63" rx="12.5" stroke="#DCE0E5"/>
<path d="M35 50L40 47L44 50V33.3805V12L40 15L35.0476 12L30 15L25 12L20 15L16 12V50.0952L20 47L25 50L30 47L35 50Z" fill="#0070F2"/>
<path d="M19.9999 20H39.9999" stroke="#FDB421" stroke-width="1.90476" stroke-linecap="round"/>
<path d="M20 27H40" stroke="#FDB421" stroke-width="1.90476" stroke-linecap="round"/>
<path d="M19.9999 34H35.9999" stroke="#FDB421" stroke-width="1.90476" stroke-linecap="round"/>
<path d="M20 41H32" stroke="#FDB421" stroke-width="1.90476" stroke-linecap="round"/>
<circle cx="43.4762" cy="42.4762" r="9.07143" fill="#FDB421" stroke="white"/>
<path fill-rule="evenodd" clip-rule="evenodd" d="M41.9311 39.1333C41.5637 39.4087 41.3977 39.7387 41.3977 40.0467C41.3977 40.3547 41.5637 40.6853 41.9311 40.9613C42.2991 41.2373 42.8377 41.428 43.4611 41.428C43.6379 41.428 43.8074 41.4982 43.9325 41.6233C44.0575 41.7483 44.1277 41.9179 44.1277 42.0947C44.1277 42.2715 44.0575 42.441 43.9325 42.5661C43.8074 42.6911 43.6379 42.7613 43.4611 42.7613C42.5771 42.7613 41.7511 42.4933 41.1311 42.028C40.5111 41.5627 40.0644 40.8693 40.0644 40.0473C40.0644 39.2253 40.5111 38.5313 41.1311 38.066C41.7511 37.6013 42.5777 37.3333 43.4611 37.3333C44.8297 37.3333 46.1237 37.9887 46.6384 39.08C46.6757 39.1592 46.6971 39.245 46.7013 39.3325C46.7055 39.42 46.6924 39.5075 46.6627 39.5899C46.6331 39.6723 46.5875 39.7481 46.5286 39.8129C46.4697 39.8777 46.3986 39.9303 46.3194 39.9677C46.2402 40.005 46.1544 40.0264 46.0669 40.0305C45.9794 40.0347 45.8919 40.0216 45.8095 39.992C45.7271 39.9624 45.6513 39.9168 45.5865 39.8579C45.5216 39.799 45.4691 39.7279 45.4317 39.6487C45.1984 39.1507 44.4704 38.6667 43.4617 38.6667C42.8384 38.6667 42.2991 38.8573 41.9311 39.1333Z" fill="white"/>
<path fill-rule="evenodd" clip-rule="evenodd" d="M44.771 45.0553C45.1383 44.78 45.3037 44.45 45.3037 44.142C45.3037 43.834 45.1383 43.5027 44.7703 43.2273C44.403 42.9513 43.8637 42.7607 43.241 42.7607C43.0642 42.7607 42.8946 42.6904 42.7696 42.5654C42.6446 42.4404 42.5743 42.2708 42.5743 42.094C42.5743 41.9172 42.6446 41.7476 42.7696 41.6226C42.8946 41.4976 43.0642 41.4273 43.241 41.4273C44.125 41.4273 44.951 41.6953 45.571 42.1607C46.191 42.626 46.637 43.3193 46.637 44.1413C46.637 44.9633 46.191 45.6573 45.5703 46.122C44.9503 46.5873 44.125 46.8553 43.241 46.8553C41.8723 46.8553 40.5777 46.2 40.0637 45.108C39.9883 44.9481 39.9795 44.7647 40.0392 44.5983C40.099 44.4319 40.2224 44.2961 40.3823 44.2207C40.5423 44.1453 40.7256 44.1365 40.892 44.1962C41.0584 44.256 41.1943 44.3794 41.2697 44.5393C41.5043 45.038 42.2323 45.522 43.241 45.522C43.8643 45.522 44.403 45.3313 44.771 45.0553ZM43.333 36C43.5098 36 43.6794 36.0702 43.8044 36.1953C43.9294 36.3203 43.9997 36.4899 43.9997 36.6667V37.3333C43.9997 37.5101 43.9294 37.6797 43.8044 37.8047C43.6794 37.9298 43.5098 38 43.333 38C43.1562 38 42.9866 37.9298 42.8616 37.8047C42.7366 37.6797 42.6663 37.5101 42.6663 37.3333V36.6667C42.6663 36.4899 42.7366 36.3203 42.8616 36.1953C42.9866 36.0702 43.1562 36 43.333 36Z" fill="white"/>
<path fill-rule="evenodd" clip-rule="evenodd" d="M43.333 46C43.5098 46 43.6794 46.0702 43.8044 46.1953C43.9294 46.3203 43.9997 46.4899 43.9997 46.6667V47.3333C43.9997 47.5101 43.9294 47.6797 43.8044 47.8047C43.6794 47.9298 43.5098 48 43.333 48C43.1562 48 42.9866 47.9298 42.8616 47.8047C42.7366 47.6797 42.6664 47.5101 42.6664 47.3333V46.6667C42.6664 46.4899 42.7366 46.3203 42.8616 46.1953C42.9866 46.0702 43.1562 46 43.333 46Z" fill="white"/>
</svg>
