<svg width="64" height="64" viewBox="0 0 64 64" fill="none" xmlns="http://www.w3.org/2000/svg">
<rect x="0.5" y="0.5" width="63" height="63" rx="12.5" fill="white"/>
<rect x="0.5" y="0.5" width="63" height="63" rx="12.5" stroke="#DCE0E5"/>
<rect x="14" y="16" width="36" height="38" rx="3" fill="#0070F2"/>
<rect x="23" y="14" width="18" height="8" rx="1" fill="#FC5B1C"/>
<rect x="28" y="10" width="8" height="8" rx="4" fill="#FC5B1C"/>
<path d="M42 29L22 29C21.4477 29 21 29.4477 21 30C21 30.5523 21.4477 31 22 31L32 31L42 31C42.5523 31 43 30.5523 43 30C43 29.4477 42.5523 29 42 29Z" fill="white"/>
<path d="M42 33L22 33C21.4477 33 21 33.4477 21 34C21 34.5523 21.4477 35 22 35L32 35L42 35C42.5523 35 43 34.5523 43 34C43 33.4477 42.5523 33 42 33Z" fill="#FDB421"/>
<path d="M42 37L22 37C21.4477 37 21 37.4477 21 38C21 38.5523 21.4477 39 22 39L32 39L42 39C42.5523 39 43 38.5523 43 38C43 37.4477 42.5523 37 42 37Z" fill="white"/>
</svg>
