<svg width="64" height="64" viewBox="0 0 64 64" fill="none" xmlns="http://www.w3.org/2000/svg">
<rect x="0.5" y="0.5" width="63" height="63" rx="12.5" fill="white"/>
<rect x="0.5" y="0.5" width="63" height="63" rx="12.5" stroke="#DCE0E5"/>
<path d="M41.1159 40L48.9169 43.9968C50.0613 44.6693 50.3486 47.1184 49.539 48.1335C48.6175 49.2888 45.7744 49.2888 44.8529 48.1335L40 41.0493L41.1159 40Z" fill="#FDB421"/>
<path fill-rule="evenodd" clip-rule="evenodd" d="M15 31C15 22.1634 22.1634 15 31 15C39.8366 15 47 22.1634 47 31C47 39.8366 39.8366 47 31 47C22.1634 47 15 39.8366 15 31ZM31.1012 32.9988C28.5526 32.9988 26.4265 30.7832 26.4713 27.9957C26.4713 25.2564 28.5526 23 31.1012 23C33.6498 23 35.7312 25.2612 35.7312 28.0006C35.7759 30.7881 33.6498 32.9988 31.1012 32.9988ZM27.3996 35.0114L34.8046 35.0127C37.1799 35.0131 39.2067 36.6244 40 38.8904C37.582 41.4335 34.2796 43 30.6384 43C27.3481 43 24.3344 41.7209 22 39.5979C22.5883 36.9659 24.7827 35.0109 27.3996 35.0114Z" fill="#0070F2"/>
<path d="M26.4713 27.9957C26.4265 30.7832 28.5526 32.9988 31.1012 32.9988C33.6498 32.9988 35.7759 30.7881 35.7312 28.0006C35.7312 25.2612 33.6498 23 31.1012 23C28.5526 23 26.4713 25.2564 26.4713 27.9957Z" fill="white"/>
<path d="M34.8046 35.0127L27.3996 35.0114C24.7827 35.0109 22.5883 36.9659 22 39.5979C24.3344 41.7209 27.3481 43 30.6384 43C34.2796 43 37.582 41.4335 40 38.8904C39.2067 36.6244 37.1799 35.0131 34.8046 35.0127Z" fill="#FDB421"/>
</svg>
