<svg width="64" height="64" viewBox="0 0 64 64" fill="none" xmlns="http://www.w3.org/2000/svg">
<rect x="0.5" y="0.5" width="63" height="63" rx="12.5" fill="white"/>
<rect x="0.5" y="0.5" width="63" height="63" rx="12.5" stroke="#DCE0E5"/>
<path d="M32 49C41.3888 49 49 41.3888 49 32C49 22.6112 41.3888 15 32 15C22.6112 15 15 22.6112 15 32C15 41.3888 22.6112 49 32 49Z" fill="#0070F2" stroke="#0070F2" stroke-width="2.5"/>
<path d="M32.0015 21.8V42.2M37.1015 27.75C37.1015 25.404 34.8184 23.5 32.0015 23.5C29.1846 23.5 26.9015 25.404 26.9015 27.75C26.9015 30.096 29.1846 32 32.0015 32C34.8184 32 37.1015 33.904 37.1015 36.25C37.1015 38.596 34.8184 40.5 32.0015 40.5C29.1846 40.5 26.9015 38.596 26.9015 36.25" stroke="#FDB421" stroke-width="2.5" stroke-linecap="round"/>
</svg>
