<svg width="64" height="64" viewBox="0 0 64 64" fill="none" xmlns="http://www.w3.org/2000/svg">
<rect x="0.5" y="0.5" width="63" height="63" rx="12.5" fill="white"/>
<rect x="0.5" y="0.5" width="63" height="63" rx="12.5" stroke="#DCE0E5"/>
<path d="M12 33.7714V30.2286C12 28.1351 13.6992 26.404 15.7981 26.404C19.4163 26.404 20.8956 23.8274 19.0765 20.6671C18.037 18.8555 18.6567 16.5003 20.4758 15.4536L23.934 13.4608C25.5132 12.5147 27.5522 13.0783 28.4918 14.6685L28.7116 15.051C30.5107 18.2113 33.4693 18.2113 35.2884 15.051L35.5082 14.6685C36.4478 13.0783 38.4868 12.5147 40.066 13.4608L43.5242 15.4536C45.3433 16.5003 45.963 18.8555 44.9235 20.6671C43.1044 23.8274 44.5837 26.404 48.2019 26.404C50.2809 26.404 52 28.115 52 30.2286V33.7714C52 35.8649 50.3008 37.596 48.2019 37.596C44.5837 37.596 43.1044 40.1726 44.9235 43.3329C45.963 45.1647 45.3433 47.4997 43.5242 48.5464L40.066 50.5392C38.4868 51.4853 36.4478 50.9217 35.5082 49.3315L35.2884 48.949C33.4893 45.7887 30.5307 45.7887 28.7116 48.949L28.4918 49.3315C27.5522 50.9217 25.5132 51.4853 23.934 50.5392L20.4758 48.5464C18.6567 47.4997 18.037 45.1445 19.0765 43.3329C20.8956 40.1726 19.4163 37.596 15.7981 37.596C13.6992 37.596 12 35.8649 12 33.7714Z" fill="#0070F2"/>
<path d="M41 31.5C41 26.8056 37.1944 23 32.5 23C27.8056 23 24 26.8056 24 31.5C24 36.1944 27.8056 40 32.5 40M41 31.5L43.5 28M41 31.5L37.5 29.5" stroke="white" stroke-width="2" stroke-miterlimit="10" stroke-linecap="round" stroke-linejoin="round"/>
</svg>
